<svg id="Layer_1" data-name="Layer 1" xmlns="http://www.w3.org/2000/svg" viewBox="0 0 586.57 36"><defs><style>.cls-1{fill:#004c97;}</style></defs><title>Artboard 1</title><path class="cls-1" d="M.31,30.3V6.74H6V30.3Z"/><path class="cls-1" d="M26.33,30.3,16.85,14.89h-.1l.13,15.41H11.36V6.74h6.49L27.3,22.11h.1L27.26,6.74h5.53V30.3Z"/><path class="cls-1" d="M48,11.6V30.3H42.33V11.6H35.67V6.74h19V11.6Z"/><path class="cls-1" d="M57.58,30.3V6.74H73.42v4.79H63.07V16h9.78v4.56H63.07v4.89H74V30.3Z"/><path class="cls-1" d="M91.06,30.3,85.94,21H84V30.3H78.45V6.74h9a15.76,15.76,0,0,1,3.31.35,8.68,8.68,0,0,1,2.9,1.18,6.25,6.25,0,0,1,2,2.2,6.85,6.85,0,0,1,.77,3.39,6.3,6.3,0,0,1-1.3,4,7.06,7.06,0,0,1-3.59,2.33L97.71,30.3ZM90.82,14a2.34,2.34,0,0,0-.35-1.35,2.29,2.29,0,0,0-.9-.79,4,4,0,0,0-1.24-.39,10,10,0,0,0-1.32-.1H84v5.49h2.71a10.31,10.31,0,0,0,1.44-.11,4.6,4.6,0,0,0,1.33-.42,2.65,2.65,0,0,0,1-.86A2.55,2.55,0,0,0,90.82,14Z"/><path class="cls-1" d="M115.86,30.3l-9.49-15.41h-.1l.14,15.41h-5.53V6.74h6.49l9.45,15.37h.1l-.13-15.37h5.52V30.3Z"/><path class="cls-1" d="M143.76,30.3l-1.83-4.63h-9.12l-1.73,4.63h-6.19l9.89-23.56h5.52l9.78,23.56ZM137.44,13l-3,8.09h5.93Z"/><path class="cls-1" d="M160.47,11.6V30.3h-5.69V11.6h-6.65V6.74h19V11.6Z"/><path class="cls-1" d="M170,30.3V6.74h5.73V30.3Z"/><path class="cls-1" d="M205.57,18.42a13.21,13.21,0,0,1-1,5.11,11.8,11.8,0,0,1-2.68,4A11.93,11.93,0,0,1,197.85,30a15,15,0,0,1-10.23,0,11.94,11.94,0,0,1-4.06-2.54,11.66,11.66,0,0,1-2.68-4,13.21,13.21,0,0,1-1-5.11,13.07,13.07,0,0,1,1-5.11,11.1,11.1,0,0,1,2.68-3.87A11.76,11.76,0,0,1,187.62,7a15.47,15.47,0,0,1,10.23,0,11.66,11.66,0,0,1,4.08,2.46,11.33,11.33,0,0,1,2.68,3.87A13.07,13.07,0,0,1,205.57,18.42Zm-6.09,0a7.93,7.93,0,0,0-.5-2.86,6.69,6.69,0,0,0-1.38-2.28,6.51,6.51,0,0,0-2.13-1.5,6.81,6.81,0,0,0-2.74-.55,6.54,6.54,0,0,0-4.86,2,6.39,6.39,0,0,0-1.38,2.28,8.38,8.38,0,0,0-.48,2.86,8.27,8.27,0,0,0,.5,2.95,6.93,6.93,0,0,0,1.38,2.31A6.18,6.18,0,0,0,190,25.19a7.05,7.05,0,0,0,5.46,0,6.46,6.46,0,0,0,2.13-1.51A6.79,6.79,0,0,0,199,21.37,8.27,8.27,0,0,0,199.48,18.42Z"/><path class="cls-1" d="M224.68,30.3l-9.49-15.41h-.1l.14,15.41H209.7V6.74h6.49l9.45,15.37h.1l-.13-15.37h5.52V30.3Z"/><path class="cls-1" d="M252.58,30.3l-1.83-4.63h-9.12L239.9,30.3h-6.19L243.6,6.74h5.52L258.9,30.3ZM246.26,13l-3,8.09h5.92Z"/><path class="cls-1" d="M261.48,30.3V6.74h5.73v18.6h9.11v5Z"/><path class="cls-1" d="M309.67,30.3l.13-16.67h-.1L303.58,30.3h-4l-5.95-16.67h-.1l.13,16.67H288.3V6.74h8.1l5.36,15.11h.13L307,6.74h8.22V30.3Z"/><path class="cls-1" d="M345.07,18.42a13.21,13.21,0,0,1-1,5.11,11.8,11.8,0,0,1-2.68,4A11.93,11.93,0,0,1,337.35,30a15,15,0,0,1-10.23,0,11.94,11.94,0,0,1-4.06-2.54,11.8,11.8,0,0,1-2.68-4,13.21,13.21,0,0,1-1-5.11,13.07,13.07,0,0,1,1-5.11,11.23,11.23,0,0,1,2.68-3.87A11.76,11.76,0,0,1,327.12,7a15.47,15.47,0,0,1,10.23,0,11.66,11.66,0,0,1,4.08,2.46,11.33,11.33,0,0,1,2.68,3.87A13.07,13.07,0,0,1,345.07,18.42Zm-6.09,0a7.93,7.93,0,0,0-.5-2.86,6.69,6.69,0,0,0-1.38-2.28,6.51,6.51,0,0,0-2.13-1.5,6.81,6.81,0,0,0-2.74-.55,6.54,6.54,0,0,0-4.86,2A6.39,6.39,0,0,0,326,15.56a8.38,8.38,0,0,0-.48,2.86,8.27,8.27,0,0,0,.5,2.95,6.93,6.93,0,0,0,1.38,2.31,6.18,6.18,0,0,0,2.11,1.51,7.05,7.05,0,0,0,5.46,0,6.46,6.46,0,0,0,2.13-1.51,6.79,6.79,0,0,0,1.39-2.31A8.27,8.27,0,0,0,339,18.42Z"/><path class="cls-1" d="M364.18,30.3l-9.49-15.41h-.1l.14,15.41H349.2V6.74h6.49l9.45,15.37h.1l-.13-15.37h5.52V30.3Z"/><path class="cls-1" d="M376,30.3V6.74H391.8v4.79H381.45V16h9.78v4.56h-9.78v4.89H392.4V30.3Z"/><path class="cls-1" d="M406.79,11.6V30.3H401.1V11.6h-6.65V6.74h19V11.6Z"/><path class="cls-1" d="M430.38,30.3l-1.83-4.63h-9.12L417.7,30.3h-6.19L421.4,6.74h5.52L436.7,30.3ZM424.06,13l-3,8.09H427Z"/><path class="cls-1" d="M451.89,30.3,446.78,21h-1.94V30.3h-5.56V6.74h9a15.83,15.83,0,0,1,3.31.35,8.63,8.63,0,0,1,2.89,1.18,6.19,6.19,0,0,1,2,2.2,6.85,6.85,0,0,1,.77,3.39,6.3,6.3,0,0,1-1.3,4,7.09,7.09,0,0,1-3.6,2.33l6.16,10.08ZM451.66,14a2.42,2.42,0,0,0-.35-1.35,2.36,2.36,0,0,0-.9-.79,4,4,0,0,0-1.24-.39,10.29,10.29,0,0,0-1.32-.1h-3v5.49h2.71a10.17,10.17,0,0,0,1.43-.11,4.67,4.67,0,0,0,1.34-.42A2.38,2.38,0,0,0,451.66,14Z"/><path class="cls-1" d="M472.53,20.32v10h-5.69v-10L458,6.74h6.89l5,8.72,5-8.72h6.65Z"/><path class="cls-1" d="M498.29,11.6v4.86h9.11v4.69h-9.11V30.3h-5.63V6.74h15.51V11.6Z"/><path class="cls-1" d="M531.4,25.29a8.49,8.49,0,0,1-2,3,9.41,9.41,0,0,1-3.21,1.94,12.86,12.86,0,0,1-8.37,0,9,9,0,0,1-3.16-1.94,8.5,8.5,0,0,1-2-3,10.45,10.45,0,0,1-.7-3.87V6.74h5.66V21a6.47,6.47,0,0,0,.25,1.83,4.69,4.69,0,0,0,.77,1.55A3.59,3.59,0,0,0,520,25.41a4.75,4.75,0,0,0,2,.4,4.82,4.82,0,0,0,2-.4,3.74,3.74,0,0,0,1.38-1.08,4.34,4.34,0,0,0,.77-1.55,7.28,7.28,0,0,0,.23-1.83V6.74h5.69V21.42A10.22,10.22,0,0,1,531.4,25.29Z"/><path class="cls-1" d="M552.22,30.3l-9.48-15.41h-.1l.13,15.41h-5.52V6.74h6.49l9.45,15.37h.1l-.14-15.37h5.53V30.3Z"/><path class="cls-1" d="M586,18.45a11.57,11.57,0,0,1-1.15,5.35,10.83,10.83,0,0,1-3,3.69,12.87,12.87,0,0,1-4.25,2.13,17.32,17.32,0,0,1-4.79.68H564V6.74h8.52a21.48,21.48,0,0,1,4.92.58,12.43,12.43,0,0,1,4.33,1.93,10,10,0,0,1,3.06,3.61A12.23,12.23,0,0,1,586,18.45Zm-5.92,0a7.51,7.51,0,0,0-.65-3.31,5.58,5.58,0,0,0-1.73-2.09,7.09,7.09,0,0,0-2.46-1.12,12.21,12.21,0,0,0-2.85-.33h-2.83V25.38h2.7A12.33,12.33,0,0,0,575.2,25a7.17,7.17,0,0,0,2.5-1.15,5.63,5.63,0,0,0,1.73-2.13A7.55,7.55,0,0,0,580.08,18.45Z"/></svg>